{"glyphs":{":":{"x_min":0,"x_max":238,"ha":238,"o":"m 162 470 b 130 470 107 449 100 419 b 89 377 117 344 153 344 b 191 344 218 379 218 414 b 218 445 196 470 162 470 z m 110 271 b 78 271 56 250 48 221 b 37 178 66 145 102 145 b 139 145 166 180 166 215 b 166 246 145 271 110 271 z"},"$":{"x_min":0,"x_max":538,"ha":538,"o":"m 394 513 b 468 513 518 552 518 596 b 518 652 437 702 351 713 l 355 761 b 336 761 319 756 311 736 l 307 715 b 182 711 104 622 104 543 b 104 388 405 315 405 212 b 405 171 357 122 302 118 l 309 209 b 290 209 273 204 265 184 l 254 127 b 196 152 155 229 170 321 b 113 335 60 276 60 214 b 60 135 149 77 244 73 l 234 24 b 260 14 301 34 298 60 l 299 77 b 416 98 501 195 501 277 b 501 436 196 492 196 587 b 196 626 249 675 301 682 l 280 576 b 306 566 347 586 344 612 l 349 675 b 384 658 403 618 403 570 b 403 551 400 530 394 513 z"},"?":{"x_min":0,"x_max":567,"ha":567,"o":"m 317 861 b 199 861 109 804 109 729 b 109 684 141 654 191 651 b 203 749 272 830 343 830 b 383 830 403 805 403 762 b 403 602 132 484 135 318 b 138 294 149 285 179 281 b 179 400 557 546 557 705 b 557 791 448 861 317 861 z m 132 240 b 96 240 71 215 63 181 b 50 130 82 91 122 91 b 164 91 195 132 195 173 b 195 210 171 240 132 240 z"},"<":{"x_min":0,"x_max":419,"ha":419,"o":"m 75 376 b 29 354 30 295 75 264 l 276 127 b 309 164 303 232 264 254 l 107 320 l 344 386 b 385 397 390 476 356 512 z"},"'":{"x_min":0,"x_max":200,"ha":200,"o":"m 43 548 b 30 520 61 473 116 486 l 160 679 b 154 694 140 703 127 703 b 121 703 116 701 111 697 z"},"=":{"x_min":0,"x_max":533,"ha":533,"o":"m 157 502 b 110 503 73 452 82 406 l 426 406 b 476 405 500 459 491 501 z m 117 315 b 70 316 33 265 42 219 l 386 219 b 436 218 460 272 451 314 z"},"a":{"x_min":0,"x_max":559,"ha":559,"o":"m 450 381 b 445 432 363 459 308 460 l 301 438 b 279 448 251 453 219 453 b 76 453 -39 352 -39 229 b -39 143 18 88 103 88 b 164 88 219 117 253 162 b 275 116 320 88 379 88 b 453 88 513 132 569 226 l 526 236 b 491 175 440 133 401 133 b 323 133 409 305 450 381 z m 239 228 b 219 184 181 151 147 151 b 119 151 103 172 103 210 b 103 300 191 401 271 401 b 279 401 285 400 290 399 z"},"L":{"x_min":0,"x_max":2097,"ha":2097,"o":"m 1613 730 b 1342 775 1138 976 1097 1265 b 1194 1291 1249 1342 1249 1408 b 1249 1465 1207 1502 1139 1502 b 1029 1502 951 1405 967 1288 b 740 1259 372 1294 158 1109 b 58 1023 0 896 0 762 b 0 481 257 249 569 249 b 850 249 1058 436 1058 689 b 1058 906 906 1057 688 1057 b 466 1057 282 899 282 707 b 282 535 408 461 536 461 b 666 461 798 539 798 668 b 798 709 778 739 738 739 b 713 739 688 725 682 701 b 704 675 714 650 714 626 b 714 553 633 502 550 502 b 466 502 381 556 381 694 b 381 852 519 976 697 976 b 876 976 1002 850 1002 670 b 1002 456 823 297 583 297 b 328 297 135 477 135 715 b 135 821 173 927 243 1007 b 417 1206 753 1202 975 1242 b 1030 961 1286 744 1595 687 b 1509 478 1411 277 1249 179 b 1151 227 1072 249 992 249 b 892 249 832 214 832 154 b 832 65 965 -10 1121 -10 b 1207 -10 1293 13 1366 55 b 1601 -169 1778 -277 1908 -277 b 2014 -277 2088 -206 2175 -20 b 2175 1 2155 11 2129 3 b 2053 -83 1967 -128 1882 -128 b 1753 -128 1616 -24 1417 89 b 1575 210 1672 443 1752 672 b 2125 669 2441 903 2441 1168 b 2441 1313 2347 1404 2189 1404 b 1852 1404 1718 991 1613 730 z m 1091 1308 b 1083 1388 1115 1452 1158 1452 b 1183 1452 1200 1431 1200 1404 b 1200 1362 1159 1325 1091 1308 z m 2196 1373 b 2293 1373 2358 1302 2358 1189 b 2358 956 2085 739 1769 722 b 1832 907 1948 1373 2196 1373 z m 989 209 b 1056 209 1122 186 1194 150 b 1134 123 1065 109 998 109 b 911 109 876 132 876 156 b 876 182 917 209 989 209 z"},"3":{"x_min":0,"x_max":466,"ha":466,"o":"m 309 700 b 162 700 50 637 50 556 b 50 519 73 493 124 490 b 164 594 240 669 308 669 b 340 669 359 653 359 620 b 359 552 276 441 174 376 b 160 358 173 340 195 347 b 290 361 328 315 328 259 b 328 190 271 107 192 107 b 127 107 93 163 93 269 b 80 275 68 277 56 277 b 16 277 -15 246 -16 197 b -17 122 55 79 180 79 b 372 79 463 181 463 270 b 463 333 417 391 329 401 b 430 453 482 516 482 587 b 482 662 424 700 309 700 z"},";":{"x_min":0,"x_max":272,"ha":272,"o":"m 166 470 b 134 470 111 449 104 419 b 93 377 121 344 157 344 b 195 344 222 379 222 414 b 222 445 200 470 166 470 z m 182 208 b 182 245 151 274 115 274 b 89 274 71 258 67 232 b 71 219 74 206 74 193 b 74 161 56 132 20 110 b 29 100 42 94 60 94 b 116 94 182 155 182 208 z"},"J":{"x_min":0,"x_max":1925,"ha":1925,"o":"m 2192 1152 b 2193 1175 2183 1187 2163 1185 b 2142 1174 2110 1162 2087 1151 b 1957 1092 1716 1064 1533 990 b 1431 1084 1286 1136 1116 1136 b 917 1136 746 1064 647 938 b 269 934 0 677 0 321 b 0 -34 266 -287 648 -287 b 720 -287 789 -278 853 -263 b 913 -359 1026 -420 1173 -420 b 1799 -420 1731 684 2131 1102 b 2154 1126 2171 1140 2192 1152 z m 834 -228 b 787 -238 738 -244 687 -244 b 369 -244 149 -8 149 318 b 149 619 337 848 611 883 b 477 640 623 372 889 372 b 1256 372 1273 883 746 934 b 833 1037 971 1095 1133 1095 b 1276 1095 1401 1050 1493 972 b 1376 917 1292 837 1292 709 b 1292 575 1383 490 1526 490 b 1593 490 1653 509 1706 547 b 1555 148 1395 -310 1080 -310 b 1010 -310 954 -287 914 -246 b 1123 -179 1275 -36 1275 121 b 1275 227 1206 295 1106 295 b 854 295 741 -27 834 -228 z m 1545 921 b 1569 895 1589 857 1605 826 b 1615 803 1620 783 1620 766 b 1620 748 1614 733 1599 721 b 1604 697 1638 679 1661 684 b 1688 690 1699 707 1699 730 b 1699 797 1603 915 1580 941 b 1713 1010 1890 1044 1996 1088 b 1895 1011 1815 831 1735 624 b 1683 564 1619 530 1553 530 b 1461 530 1401 596 1401 698 b 1401 800 1461 870 1545 921 z m 713 888 b 1200 880 1199 412 908 412 b 689 412 583 676 713 888 z m 888 -214 b 780 -49 888 258 1108 258 b 1184 258 1235 207 1235 124 b 1235 -18 1083 -155 888 -214 z"},"V":{"x_min":0,"x_max":2108,"ha":2108,"o":"m 951 658 b 947 723 936 786 918 848 b 1159 931 1376 1023 1533 1108 b 1291 763 1864 443 1635 -42 b 1634 -67 1647 -71 1663 -70 b 1707 -20 1742 29 1768 77 l 1769 78 b 1974 439 2173 1069 2454 1067 b 2489 1067 2512 1057 2532 1027 b 2570 1027 2593 1051 2593 1074 b 2594 1097 2572 1121 2495 1121 b 2171 1123 2023 707 1835 298 b 1869 689 1479 1012 1704 1212 b 1730 1236 1765 1257 1792 1257 b 1815 1257 1833 1240 1833 1192 b 1907 1223 1904 1314 1825 1314 b 1756 1314 1668 1245 1617 1200 b 1412 1064 1120 977 900 902 b 804 1154 662 1217 572 1217 b 512 1217 492 1171 516 1121 b 542 1144 566 1151 591 1151 b 721 1151 826 1017 868 891 b 364 753 0 416 0 87 b 0 -134 164 -266 436 -266 b 863 -266 1288 59 1288 385 b 1288 559 1166 658 951 658 z m 951 564 b 1108 564 1195 491 1195 357 b 1195 83 830 -211 490 -211 b 284 -211 164 -103 164 82 b 164 384 482 717 886 837 b 903 773 914 713 918 659 b 653 657 369 419 369 198 b 369 104 421 53 519 53 b 731 53 934 293 951 564 z m 421 189 b 421 365 689 570 918 570 b 903 324 713 90 528 90 b 458 90 421 124 421 189 z"},"\"":{"x_min":0,"x_max":340,"ha":340,"o":"m 43 548 b 30 520 61 473 116 486 l 160 679 b 154 694 140 703 127 703 b 121 703 116 701 111 697 z m 183 548 b 170 520 201 473 256 486 l 300 679 b 294 694 280 703 267 703 b 261 703 256 701 251 697 z"},"7":{"x_min":0,"x_max":439,"ha":439,"o":"m 72 216 b 45 139 97 83 196 83 b 238 200 298 449 360 600 b 376 642 388 680 327 670 b 304 667 276 665 244 665 b 179 665 102 674 51 701 b -8 681 10 554 109 564 l 304 628 z"},"S":{"x_min":0,"x_max":1841,"ha":1841,"o":"m 1169 1291 b 1224 1291 1262 1274 1265 1236 b 1298 1234 1320 1249 1320 1266 b 1320 1292 1270 1323 1131 1312 b 901 1295 724 1174 656 986 b 456 906 320 719 296 491 b 99 325 1 103 1 -178 b -1 -196 8 -204 17 -204 b 25 -204 34 -198 39 -188 b 39 14 125 194 296 351 b 334 13 636 -235 1011 -235 b 1436 -235 1740 82 1740 525 b 1740 677 1704 826 1688 951 b 1873 1024 1996 1141 1996 1244 b 1996 1317 1935 1365 1841 1365 b 1655 1365 1526 1179 1547 942 b 1463 918 1371 897 1274 874 b 1203 974 1067 1030 891 1030 b 834 1030 782 1024 735 1011 b 794 1183 953 1285 1169 1291 z m 1684 989 b 1667 1171 1751 1321 1871 1321 b 1923 1321 1956 1293 1956 1247 b 1956 1164 1848 1062 1684 989 z m 735 727 b 720 774 712 823 712 867 b 712 898 716 931 723 969 b 767 983 824 990 885 990 b 1039 990 1161 945 1230 864 b 1003 811 862 772 735 727 z m 331 519 b 359 712 474 868 642 941 b 632 901 628 865 628 829 b 628 781 635 736 649 695 b 517 640 412 582 331 519 z m 327 378 b 423 460 544 536 690 606 b 758 500 875 439 1013 439 b 1199 439 1323 551 1323 718 b 1323 760 1315 797 1298 832 b 1390 860 1462 881 1551 907 b 1561 798 1565 715 1565 645 b 1565 130 1350 -144 952 -144 b 605 -144 355 65 327 378 z m 773 645 b 908 702 1065 759 1259 821 b 1277 786 1286 751 1287 711 b 1290 573 1197 480 1054 480 b 939 480 836 540 773 645 z"},"}":{"x_min":0,"x_max":607,"ha":607,"o":"m 445 618 b 56 484 263 -13 17 -13 b -63 -13 -53 -65 -23 -61 b 651 -61 75 561 482 561 b 622 561 616 635 560 632 b 280 627 669 900 669 1096 b 669 1176 605 1214 529 1214 b 484 1214 435 1200 393 1174 b 374 1164 372 1134 397 1132 b 483 1119 494 1069 494 1033 b 494 865 252 690 445 618 z"},"Z":{"x_min":0,"x_max":2175,"ha":2175,"o":"m 1161 3 b 1187 -6 1222 -10 1263 -10 b 1360 -10 1445 12 1518 55 b 1646 -66 1814 -232 1970 -232 b 2061 -232 2147 -176 2219 -22 b 2219 -1 2199 9 2173 1 b 2130 -42 2076 -63 2007 -63 b 1901 -63 1760 -13 1571 90 b 1712 203 1796 406 1892 607 b 1929 588 1963 578 1997 578 b 2061 578 2121 614 2191 688 b 2199 709 2177 710 2155 706 b 2126 674 2097 658 2055 658 b 2022 658 1983 667 1931 685 b 2030 881 2085 952 2198 1031 b 2289 1058 2336 1090 2345 1134 b 2351 1162 2339 1176 2316 1176 b 2282 1176 2255 1150 2234 1126 b 2213 1121 2192 1120 2168 1121 b 1952 1134 1694 1325 1320 1358 b 1283 1361 1246 1363 1209 1363 b 579 1363 0 898 0 303 b 0 -44 197 -250 530 -250 b 758 -250 999 -153 1161 3 z m 1586 667 b 1575 652 1585 637 1608 633 b 1646 660 1682 673 1720 673 b 1740 673 1760 669 1782 661 b 1655 464 1548 270 1402 180 b 1363 199 1336 210 1314 217 b 1337 271 1350 327 1350 379 b 1350 544 1220 650 1007 658 b 991 831 874 979 747 979 b 648 979 649 889 681 866 b 704 893 736 909 771 909 b 864 909 956 797 971 659 b 708 652 431 416 431 198 b 431 104 483 53 581 53 b 793 53 996 293 1013 564 b 1171 564 1257 490 1257 356 b 1257 318 1250 278 1236 239 b 1213 245 1183 249 1148 249 b 1045 249 984 214 984 154 b 984 105 1026 57 1095 26 b 953 -114 766 -196 587 -196 b 309 -196 142 3 142 354 b 142 906 556 1274 1113 1274 b 1159 1274 1206 1271 1254 1266 b 1635 1225 1881 1039 2135 1044 b 2007 964 1936 890 1819 717 b 1798 721 1778 723 1758 723 b 1697 723 1641 705 1586 667 z m 483 189 b 483 365 751 570 980 570 b 965 324 775 90 590 90 b 520 90 483 124 483 189 z m 1145 209 b 1169 209 1192 206 1220 199 b 1208 173 1191 145 1166 110 b 1164 110 1161 110 1159 110 l 1144 109 b 1116 109 1028 113 1028 156 b 1028 186 1079 209 1145 209 z m 1293 174 b 1314 165 1332 157 1346 150 b 1316 137 1290 128 1262 122 b 1274 138 1284 154 1293 174 z"},"x":{"x_min":0,"x_max":506,"ha":506,"o":"m 329 528 b 307 440 271 372 198 327 b 193 350 190 374 189 382 b 185 436 138 466 84 466 b 66 466 47 462 28 455 b 26 388 32 325 46 270 b -37 244 -119 209 -119 116 b -120 69 -74 34 -32 34 b -14 34 4 41 17 57 b -5 118 12 169 64 211 b 101 117 166 57 261 57 b 360 57 455 122 516 226 l 473 236 b 442 179 400 149 347 149 b 272 149 232 209 209 285 b 286 314 428 382 428 474 b 428 511 405 534 366 534 b 355 534 343 532 329 528 z"},")":{"x_min":0,"x_max":579,"ha":579,"o":"m 17 17 b -61 -13 -53 -50 -23 -46 b 297 34 579 458 579 884 b 579 1023 549 1125 479 1195 b 450 1220 422 1233 392 1233 b 363 1233 332 1220 296 1195 b 385 1120 434 989 434 819 b 434 469 227 97 17 17 z"},"&":{"x_min":0,"x_max":1018,"ha":1018,"o":"m 393 95 b 397 117 389 129 374 125 b 354 111 328 103 304 103 b 244 103 201 152 201 220 b 201 272 227 314 278 342 b 398 241 473 182 540 139 b 491 69 466 -13 475 -67 b 482 -109 508 -127 536 -127 b 568 -127 602 -102 609 -62 b 564 -36 549 56 580 117 b 637 82 711 64 782 64 b 903 64 978 116 978 194 b 978 264 916 313 825 313 b 760 313 693 288 632 240 b 573 274 510 323 462 375 b 580 394 661 464 661 548 b 661 637 568 700 436 700 b 288 700 179 621 179 513 b 179 462 203 412 247 373 b 120 350 40 287 40 210 b 40 126 135 66 266 66 b 319 66 363 76 393 95 z m 437 405 b 364 466 324 529 324 582 b 324 633 362 667 419 667 b 489 667 539 615 539 543 b 539 482 503 433 437 405 z m 664 215 b 714 254 768 275 821 275 b 888 275 935 241 935 192 b 935 163 918 151 875 151 b 813 151 733 175 664 215 z"},"_":{"x_min":0,"x_max":473,"ha":473,"o":"m 95 86 b 48 87 21 46 30 0 l 334 0 b 384 -1 408 43 399 85 z"},"v":{"x_min":0,"x_max":560,"ha":560,"o":"m 147 133 b 84 133 143 297 184 377 b 180 418 116 454 44 455 b 5 342 -39 253 -39 190 b -39 119 16 74 107 74 b 265 74 432 210 480 381 b 476 421 402 459 328 460 b 322 321 215 133 147 133 z"},"O":{"x_min":0,"x_max":1998,"ha":1998,"o":"m 843 147 b 885 -25 1014 -119 1209 -119 b 1922 -119 2291 1132 1613 1132 b 1503 1132 1394 1099 1294 1042 b 1196 1099 1115 1177 1078 1256 b 1164 1279 1220 1312 1220 1375 b 1220 1438 1165 1471 1105 1471 b 1036 1471 961 1426 961 1336 b 961 1318 964 1299 970 1280 b 758 1251 429 1238 208 1060 b 75 953 0 802 0 641 b 0 339 264 114 616 114 b 697 114 773 126 843 147 z m 1063 1297 b 1058 1315 1055 1334 1055 1352 b 1055 1411 1087 1436 1119 1436 b 1147 1436 1175 1415 1175 1380 b 1175 1337 1132 1313 1063 1297 z m 828 281 b 828 244 831 211 836 181 b 778 163 714 154 650 154 b 351 154 135 349 135 616 b 135 755 193 890 295 989 b 482 1170 781 1197 988 1236 b 1032 1152 1125 1070 1239 1009 b 1196 980 1155 947 1117 910 b 1038 984 924 1028 791 1028 b 519 1028 285 844 285 629 b 285 493 379 400 517 400 b 687 400 762 525 762 612 b 762 660 740 696 699 696 b 670 696 642 677 642 652 b 682 646 702 615 702 578 b 702 517 646 441 532 441 b 435 441 374 509 374 617 b 374 806 562 949 811 949 b 921 949 1012 921 1078 871 b 928 710 828 494 828 281 z m 1414 987 b 1491 1041 1572 1073 1650 1073 b 1724 1073 1780 1044 1780 1005 b 1780 967 1728 948 1636 948 b 1554 948 1482 963 1414 987 z m 1829 987 b 2073 661 1677 -70 1255 -70 b 1073 -70 1018 67 1018 230 b 1153 322 1238 462 1238 622 b 1238 677 1228 728 1209 775 b 1257 843 1311 904 1369 952 b 1449 925 1533 908 1614 908 b 1722 908 1804 938 1829 987 z m 1020 275 b 1031 430 1092 593 1179 731 b 1191 697 1197 659 1197 618 b 1197 482 1129 360 1020 275 z"},"(":{"x_min":0,"x_max":589,"ha":589,"o":"m 612 1193 b 650 1208 642 1245 612 1241 b 294 1162 0 678 0 310 b 0 187 33 77 110 0 b 140 -25 168 -38 197 -38 b 227 -38 258 -25 293 0 b 194 83 152 216 152 364 b 152 694 362 1098 612 1193 z"},"C":{"x_min":0,"x_max":1666,"ha":1666,"o":"m 1266 3 b 1139 3 1059 95 1045 250 b 1164 342 1238 473 1238 622 b 1238 679 1227 732 1207 780 b 1255 848 1311 907 1372 956 b 1458 926 1548 908 1634 908 b 1788 908 1858 965 1858 1022 b 1858 1077 1791 1132 1650 1132 b 1540 1132 1416 1099 1307 1042 b 1204 1099 1120 1176 1080 1256 b 1165 1279 1220 1312 1220 1375 b 1220 1438 1165 1471 1105 1471 b 1036 1471 961 1426 961 1336 b 961 1318 964 1300 970 1281 b 758 1252 429 1238 208 1060 b 75 953 0 802 0 641 b 0 339 264 114 618 114 b 715 114 807 131 888 162 b 947 34 1070 -47 1224 -47 b 1403 -47 1587 62 1685 226 l 1642 236 b 1565 105 1400 3 1266 3 z m 1063 1297 b 1058 1315 1055 1334 1055 1352 b 1055 1411 1087 1436 1119 1436 b 1147 1436 1175 1415 1175 1380 b 1175 1337 1132 1313 1063 1297 z m 875 195 b 806 169 729 154 647 154 b 351 154 135 349 135 616 b 135 755 193 890 295 989 b 483 1171 783 1197 990 1236 b 1036 1152 1133 1070 1250 1009 b 1203 980 1159 946 1118 909 b 1039 984 925 1028 792 1028 b 519 1028 285 844 285 629 b 285 493 379 400 517 400 b 613 400 698 445 737 516 b 782 597 763 701 705 701 b 675 701 646 673 646 645 b 678 625 701 590 701 556 b 701 480 594 441 532 441 b 435 441 374 509 374 617 b 374 806 562 949 811 949 b 921 949 1013 921 1079 871 b 937 723 849 532 849 350 b 849 292 858 241 875 195 z m 1419 991 b 1504 1049 1596 1083 1675 1083 b 1754 1083 1800 1049 1800 1015 b 1800 981 1756 948 1646 948 b 1570 948 1493 964 1419 991 z m 1043 294 b 1043 452 1095 603 1178 736 b 1191 700 1197 661 1197 620 b 1197 492 1139 377 1043 294 z"},"W":{"x_min":0,"x_max":2637,"ha":2637,"o":"m 951 658 b 947 723 936 786 918 848 b 1151 928 1362 1017 1518 1100 b 1254 758 1693 440 1465 -42 b 1464 -63 1473 -71 1493 -70 b 1758 169 1944 571 2105 839 b 2052 541 2332 283 2204 61 b 2203 40 2212 32 2232 33 b 2271 82 2301 128 2323 175 b 2477 465 2628 911 2819 1074 b 2866 1114 2923 1143 2959 1147 b 3013 1152 3069 1107 3093 1107 b 3127 1107 3156 1201 3028 1201 b 2960 1201 2880 1174 2812 1126 b 2623 992 2509 685 2377 384 b 2341 493 2193 927 2338 1136 b 2337 1157 2327 1165 2307 1161 b 2105 1017 1930 549 1645 162 b 1840 615 1443 983 1700 1210 b 1734 1240 1763 1253 1785 1253 b 1816 1253 1833 1228 1833 1192 b 1907 1223 1904 1314 1825 1314 b 1754 1314 1661 1240 1609 1195 b 1404 1062 1118 976 900 902 b 865 1000 745 1256 547 1256 b 478 1256 437 1205 463 1153 b 493 1173 524 1182 555 1182 b 737 1182 831 992 868 891 b 364 753 0 416 0 87 b 0 -134 164 -266 436 -266 b 863 -266 1288 59 1288 385 b 1288 559 1166 658 951 658 z m 951 564 b 1108 564 1195 491 1195 357 b 1195 83 830 -211 490 -211 b 284 -211 164 -103 164 82 b 164 384 482 717 886 837 b 903 773 914 713 918 659 b 653 657 369 419 369 198 b 369 104 421 53 519 53 b 731 53 934 293 951 564 z m 421 189 b 421 365 689 570 918 570 b 903 324 713 90 528 90 b 458 90 421 124 421 189 z"},"A":{"x_min":0,"x_max":2110,"ha":2110,"o":"m 0 567 b 0 383 96 212 281 161 b 280 146 280 131 281 115 b 295 -45 441 -150 645 -150 b 972 -150 1233 120 1472 406 b 1540 370 1606 344 1674 344 b 1693 344 1715 346 1737 352 b 1714 292 1701 240 1701 196 b 1701 104 1758 51 1857 51 b 1963 51 2054 111 2120 226 l 2077 236 b 2040 172 1988 133 1940 133 b 1901 133 1881 158 1881 212 b 1881 430 2200 901 2368 1085 b 2386 1073 2398 1053 2399 1024 b 2437 1024 2454 1046 2454 1066 b 2454 1110 2375 1121 2295 1121 b 2232 1121 2169 1115 2141 1112 b 1927 1094 1643 1009 1469 1009 b 1327 1009 1246 1066 1246 1161 b 1246 1243 1305 1306 1383 1306 b 1449 1306 1504 1260 1504 1207 b 1504 1178 1488 1150 1462 1150 b 1426 1150 1410 1178 1399 1209 b 1372 1209 1351 1186 1351 1158 b 1351 1119 1390 1095 1432 1095 b 1493 1091 1544 1140 1544 1205 b 1544 1282 1472 1346 1383 1346 b 1282 1346 1206 1264 1206 1155 b 1206 1022 1318 929 1481 929 b 1644 929 1862 1021 2060 1068 b 1846 971 1628 748 1409 526 b 1332 579 1249 637 1158 681 b 1145 949 932 1128 612 1128 b 202 1128 0 833 0 567 z m 329 151 b 352 148 375 146 398 146 b 499 146 566 184 576 246 b 586 308 534 356 461 356 b 382 356 319 301 293 222 b 198 284 145 419 145 565 b 145 809 294 1080 637 1080 b 897 1080 1089 924 1116 700 b 1044 730 966 750 881 750 b 682 750 557 642 557 486 b 557 344 661 253 809 253 b 990 253 1127 390 1154 583 b 1226 551 1292 511 1356 473 b 1088 203 820 -50 557 -50 b 427 -50 329 13 329 151 z m 1514 456 b 1759 753 1984 1052 2235 1076 b 2054 912 1850 616 1755 396 b 1738 392 1720 390 1703 390 b 1642 390 1580 417 1514 456 z m 891 645 b 971 645 1047 627 1117 599 b 1099 423 978 293 821 293 b 710 293 633 357 633 458 b 633 571 728 645 891 645 z m 461 316 b 508 316 542 290 536 254 b 529 214 479 186 414 186 b 386 186 359 191 335 200 b 351 268 398 316 461 316 z"},"f":{"x_min":0,"x_max":316,"ha":316,"o":"m 45 33 b 62 74 109 249 151 390 l 249 390 b 270 390 288 429 285 444 l 167 444 b 177 476 186 504 194 527 b 219 607 237 635 261 635 b 292 635 288 591 265 548 b 276 536 292 530 309 530 b 339 530 370 548 370 581 b 370 626 310 673 238 673 b 164 673 93 623 68 553 l 30 444 l 6 444 b -15 444 -33 405 -30 390 l 11 390 l -130 -18 b -103 -23 -80 -25 -61 -25 b 0 -25 30 -3 45 33 z"},"Q":{"x_min":0,"x_max":2090,"ha":2090,"o":"m 1251 -118 b 1241 -187 1212 -244 1158 -301 b 959 -146 805 71 550 59 b 403 46 310 -52 310 -192 b 310 -401 518 -565 785 -565 b 940 -565 1082 -510 1179 -413 b 1314 -531 1452 -591 1587 -591 b 1847 -591 2116 -366 2268 0 b 2260 7 2252 11 2245 11 b 2237 11 2230 7 2222 0 b 2102 -264 1840 -445 1559 -445 b 1441 -445 1329 -413 1230 -352 b 1279 -284 1309 -198 1314 -110 b 1722 -44 2075 339 2075 714 b 2075 975 1904 1132 1622 1132 b 1558 1132 1501 1124 1445 1107 b 1262 1104 1132 1157 1078 1256 b 1176 1282 1220 1319 1220 1375 b 1220 1432 1173 1471 1103 1471 b 999 1471 937 1383 970 1280 b 758 1251 429 1238 208 1060 b 75 953 0 802 0 641 b 0 339 264 114 617 114 b 967 114 1238 335 1238 622 b 1238 677 1228 729 1209 775 b 1335 955 1522 1081 1662 1081 b 1810 1081 1908 939 1908 725 b 1908 361 1623 -22 1315 -73 b 1305 21 1254 79 1181 79 b 1121 79 1076 39 1076 -15 b 1076 -81 1142 -120 1251 -118 z m 1063 1297 b 1043 1373 1068 1436 1119 1436 b 1151 1436 1175 1411 1175 1379 b 1175 1341 1140 1315 1063 1297 z m 949 229 b 861 180 757 154 648 154 b 351 154 135 349 135 616 b 135 755 193 890 295 989 b 482 1170 781 1197 988 1236 b 1052 1140 1176 1084 1351 1072 b 1263 1029 1183 975 1115 911 b 1034 987 920 1028 791 1028 b 519 1028 285 844 285 629 b 285 493 379 400 517 400 b 646 400 762 482 762 616 b 762 687 732 715 704 715 b 680 715 657 693 657 660 b 691 649 709 615 709 579 b 709 490 611 441 532 441 b 435 441 374 509 374 617 b 374 806 562 949 812 949 b 918 949 1009 923 1076 873 b 964 754 886 613 856 477 b 823 327 859 231 949 229 z m 1179 731 b 1191 697 1197 659 1197 619 b 1197 487 1133 363 1020 275 b 1030 424 1087 586 1179 731 z m 1255 -80 b 1183 -80 1138 -55 1138 -16 b 1138 14 1164 42 1192 42 b 1230 42 1255 -8 1255 -80 z m 548 17 b 756 43 916 -170 1104 -347 b 997 -424 862 -467 727 -467 b 508 -467 350 -354 350 -196 b 350 -84 430 2 548 17 z"},"w":{"x_min":0,"x_max":787,"ha":787,"o":"m 404 133 b 341 133 400 297 441 377 b 437 418 373 454 301 455 b 278 389 253 330 237 281 b 203 193 173 133 139 133 b 84 133 143 297 184 377 b 180 418 116 454 44 455 b 5 342 -39 253 -39 186 b -39 120 4 74 88 74 b 155 74 196 104 226 146 b 245 101 294 74 364 74 b 522 74 659 210 707 381 b 703 421 629 459 555 460 b 549 321 472 133 404 133 z"},"-":{"x_min":0,"x_max":453,"ha":453,"o":"m 107 399 b 60 400 33 359 42 313 l 346 313 b 396 312 420 356 411 398 z"},"E":{"x_min":0,"x_max":1675,"ha":1675,"o":"m 1362 675 b 1392 637 1439 605 1464 605 b 1507 651 1482 694 1409 700 b 1395 728 1388 760 1388 796 b 1388 837 1397 877 1413 912 b 1477 896 1545 888 1604 888 b 1756 888 1853 942 1853 1022 b 1853 1099 1764 1154 1639 1154 b 1500 1154 1372 1087 1309 996 b 1187 1055 1103 1150 1078 1260 b 1164 1285 1220 1320 1220 1385 b 1220 1451 1163 1490 1102 1490 b 1036 1490 967 1443 967 1329 b 967 1315 968 1299 971 1283 b 759 1252 429 1238 208 1060 b 75 953 0 802 0 641 b 0 339 264 114 618 114 b 706 114 789 128 864 154 b 903 15 1033 -67 1211 -67 b 1409 -67 1568 34 1685 226 l 1642 236 b 1551 80 1410 -17 1270 -17 b 1110 -17 1044 103 1044 249 b 1164 341 1238 472 1238 626 b 1238 626 1238 630 1238 634 b 1277 660 1319 674 1362 675 z m 1072 1302 b 1071 1310 1071 1318 1071 1326 b 1071 1408 1104 1440 1133 1440 b 1155 1440 1175 1421 1175 1389 b 1175 1345 1136 1319 1072 1302 z m 857 188 b 793 166 722 154 648 154 b 351 154 135 349 135 616 b 135 755 193 890 295 989 b 481 1169 776 1196 983 1237 b 1024 1120 1138 1017 1286 954 b 1274 928 1268 900 1268 872 b 1268 816 1292 758 1340 701 b 1303 701 1268 697 1233 689 b 1201 890 1027 1028 791 1028 b 518 1028 285 843 285 629 b 285 492 380 400 517 400 b 640 400 762 480 762 611 b 762 661 741 701 705 701 b 675 701 646 673 646 645 b 674 633 699 595 699 556 b 699 478 598 441 533 441 b 435 441 374 509 374 617 b 374 806 562 949 812 949 b 1023 949 1165 847 1192 679 b 997 619 852 445 852 250 b 852 227 854 207 857 188 z m 1435 951 b 1487 1030 1578 1082 1681 1082 b 1753 1082 1795 1056 1795 1012 b 1795 959 1733 928 1617 928 b 1558 928 1494 936 1435 951 z m 1047 298 b 1061 418 1120 532 1197 602 b 1192 484 1136 377 1047 298 z"},"s":{"x_min":0,"x_max":431,"ha":431,"o":"m 71 460 b 29 357 -15 264 -45 216 b -50 201 -52 190 -52 178 b -52 106 20 52 116 52 b 232 52 331 132 331 226 b 331 315 242 357 242 412 b 242 428 250 451 259 460 z m 192 191 b 199 140 165 100 123 100 b 63 100 38 185 85 228 b 89 253 67 272 35 272 b 46 293 59 319 79 366 b 122 286 184 253 192 191 z"},">":{"x_min":0,"x_max":419,"ha":419,"o":"m 344 263 b 390 285 389 344 344 375 l 143 512 b 110 475 116 407 155 385 l 312 319 l 75 253 b 34 242 29 163 63 127 z"},"l":{"x_min":0,"x_max":398,"ha":398,"o":"m 365 236 b 333 175 239 115 183 115 b 129 115 98 169 104 244 b 285 373 399 516 399 615 b 399 669 365 700 304 700 b 140 700 -39 477 -39 274 b -39 146 32 65 144 65 b 246 65 355 131 408 226 z m 108 290 b 139 447 260 647 323 647 b 342 647 357 630 357 608 b 357 550 249 413 108 290 z"},"8":{"x_min":0,"x_max":539,"ha":539,"o":"m 332 700 b 192 700 75 605 75 500 b 75 450 102 412 162 370 b 71 355 4 297 4 219 b 4 133 87 78 218 78 b 373 78 492 155 492 254 b 492 316 446 362 366 399 b 461 429 516 492 516 562 b 516 645 439 700 332 700 z m 322 420 b 253 462 215 509 215 558 b 215 616 267 667 334 667 b 398 667 449 620 449 555 b 449 493 404 442 322 420 z m 199 347 b 297 283 355 258 355 197 b 355 145 312 114 241 114 b 158 114 107 156 107 225 b 107 279 138 314 199 347 z"},"\\":{"x_min":0,"x_max":532,"ha":532,"o":"m 435 0 b 476 -5 491 33 476 103 b 447 240 186 976 143 1099 b 44 1099 2 1054 29 976 z"},"e":{"x_min":0,"x_max":431,"ha":431,"o":"m 441 226 l 398 236 b 363 177 311 136 241 136 b 181 136 135 167 120 215 b 128 214 136 213 147 213 b 244 213 349 285 349 357 b 349 412 286 453 198 453 b 67 453 -39 363 -39 251 b -39 148 52 75 179 75 b 294 75 396 135 441 226 z m 114 242 b 114 314 166 405 210 405 b 267 405 235 266 114 242 z"},"b":{"x_min":0,"x_max":580,"ha":580,"o":"m -39 223 b -69 124 4 74 85 74 b 91 90 97 108 105 130 l 105 131 b 122 98 170 78 231 78 b 375 78 500 189 500 314 b 500 398 443 453 356 453 b 290 453 236 421 193 378 l 237 503 b 254 551 269 593 279 622 b 274 673 206 699 151 700 z m 124 176 b 134 216 226 390 312 390 b 342 390 358 369 358 331 b 358 241 270 140 189 140 b 158 140 134 155 124 176 z"},"%":{"x_min":0,"x_max":637,"ha":637,"o":"m 139 420 b 305 420 304 678 170 678 b 36 678 -27 420 139 420 z m 131 216 b 104 139 156 83 255 83 b 297 200 445 450 487 567 b 503 609 503 678 416 670 z m 125 446 b 76 446 154 653 199 653 b 244 653 174 446 125 446 z m 466 89 b 632 89 631 347 497 347 b 363 347 300 89 466 89 z m 452 115 b 403 115 481 322 526 322 b 571 322 501 115 452 115 z"},"m":{"x_min":0,"x_max":863,"ha":863,"o":"m 519 162 b 519 105 579 74 644 74 b 733 74 817 131 873 226 l 830 236 b 795 175 744 133 702 133 b 627 133 710 272 751 348 b 751 421 694 456 629 456 b 566 456 517 423 475 375 b 459 427 398 454 340 454 b 285 454 239 430 200 393 b 187 427 141 454 79 455 b 27 359 -39 253 -39 179 b -39 120 4 74 85 74 b 110 143 134 212 161 280 b 203 345 250 397 281 397 b 342 397 267 203 247 149 b 252 98 320 71 375 70 b 403 144 428 207 452 273 b 494 339 546 397 592 397 b 665 397 519 250 519 162 z"},"#":{"x_min":0,"x_max":661,"ha":661,"o":"m 53 206 b 24 123 55 83 147 83 b 167 139 200 225 231 305 l 359 304 l 316 206 b 287 123 318 83 410 83 b 430 139 462 225 493 305 l 493 304 l 580 304 b 593 304 604 322 604 343 l 508 343 b 526 390 543 431 554 461 l 637 461 b 650 461 661 479 661 500 l 568 500 b 616 631 586 676 521 670 l 446 500 l 305 500 b 353 631 323 676 258 670 l 183 500 l 77 500 b 79 476 87 463 99 461 l 166 461 l 114 343 l 20 343 b 22 319 30 306 42 304 l 96 304 z m 429 461 l 377 343 l 245 343 b 263 390 280 431 291 461 z"},",":{"x_min":0,"x_max":268,"ha":268,"o":"m 199 172 b 199 213 166 245 128 245 b 100 245 80 227 76 198 b 81 184 84 169 84 155 b 84 119 64 87 26 63 b 36 51 50 45 68 45 b 129 45 199 113 199 172 z"},"n":{"x_min":0,"x_max":585,"ha":585,"o":"m 241 162 b 241 105 301 74 366 74 b 455 74 539 131 595 226 l 552 236 b 517 175 466 133 424 133 b 349 133 432 272 473 348 b 473 421 416 456 351 456 b 290 456 242 425 198 380 b 192 420 143 454 73 455 b 21 359 -45 253 -45 179 b -45 120 -2 74 79 74 b 83 84 86 93 89 103 l 110 160 b 113 170 117 180 120 189 b 163 282 251 397 315 397 b 387 397 241 250 241 162 z"},"h":{"x_min":0,"x_max":619,"ha":619,"o":"m 147 700 l -45 209 b -45 122 -2 76 82 76 b 96 113 109 150 121 187 b 160 278 278 397 346 397 b 421 397 275 250 275 162 b 275 105 335 74 400 74 b 489 74 573 131 629 226 l 586 236 b 551 175 500 133 458 133 b 383 133 466 272 507 348 b 507 421 450 456 382 456 b 309 456 239 416 181 356 b 218 461 254 565 275 622 b 270 673 202 699 147 700 z"},"z":{"x_min":0,"x_max":423,"ha":423,"o":"m 267 460 b 249 455 222 453 192 453 b 127 453 49 464 25 480 b -23 480 -53 381 64 381 b 97 381 180 399 232 410 b 129 347 -12 259 -49 222 b -118 153 -63 60 33 73 b 59 76 130 92 200 92 b 237 92 274 88 304 75 b 365 109 328 185 245 187 b 189 188 136 155 84 130 b 120 182 211 256 337 352 b 377 407 333 475 267 460 z"},"B":{"x_min":0,"x_max":2126,"ha":2126,"o":"m 172 259 b 60 28 207 -160 475 -160 b 1070 -160 1481 770 1832 1090 b 1904 1037 1943 969 1943 891 b 1943 748 1813 612 1665 595 b 1571 584 1579 536 1624 536 b 1770 533 1851 472 1851 366 b 1851 211 1679 72 1491 72 b 1396 72 1340 107 1340 165 b 1340 210 1373 244 1436 265 b 1423 297 1392 315 1362 315 b 1299 315 1277 242 1277 189 b 1277 77 1375 8 1534 8 b 1785 8 2030 179 2030 355 b 2030 470 1926 548 1744 571 b 1961 613 2099 731 2099 875 b 2099 982 2024 1073 1894 1140 b 1947 1177 1999 1198 2051 1196 b 2093 1194 2109 1178 2110 1149 b 2141 1149 2165 1166 2165 1188 b 2165 1217 2126 1240 2068 1243 b 1996 1247 1920 1218 1839 1166 b 1697 1225 1504 1258 1278 1258 b 1148 1258 1021 1247 902 1225 b 866 1323 761 1445 650 1445 b 606 1445 553 1405 577 1356 b 597 1369 630 1378 664 1378 b 764 1378 825 1303 859 1216 b 372 1117 22 850 22 536 b 22 412 76 316 172 259 z m 207 241 b 265 215 335 201 415 201 b 766 201 1114 473 1114 747 b 1114 866 1049 944 931 968 b 937 1041 933 1112 917 1176 b 1038 1204 1168 1219 1300 1219 b 1502 1219 1667 1184 1779 1123 b 1357 800 849 -60 399 -60 b 213 -60 134 87 207 241 z m 474 394 b 724 394 873 658 917 873 b 997 846 1043 786 1043 701 b 1043 483 741 256 451 256 b 260 256 149 354 149 522 b 149 803 457 1059 875 1166 b 890 1107 895 1041 890 974 b 875 975 859 976 840 976 b 572 976 311 773 311 561 b 311 459 371 398 474 394 z m 878 883 b 836 655 695 437 489 430 b 409 433 363 479 363 556 b 363 724 583 889 809 889 b 834 889 857 887 878 883 z"},"K":{"x_min":0,"x_max":2354,"ha":2354,"o":"m 2326 236 b 2288 171 2236 133 2184 133 b 2007 133 2165 576 1860 684 b 2070 758 2141 1021 2316 1021 b 2338 1021 2360 1017 2382 1010 b 2397 1025 2405 1044 2405 1063 b 2405 1101 2374 1128 2333 1125 b 2109 1125 2039 730 1751 706 b 1813 910 1886 1050 1984 1152 b 2007 1176 2024 1190 2045 1202 b 2046 1225 2036 1237 2016 1235 b 1949 1199 1874 1178 1798 1178 b 1688 1178 1584 1216 1426 1216 b 1303 1216 1206 1193 1132 1155 b 1072 1176 1004 1186 922 1186 b 699 1186 523 1113 424 980 b 177 940 0 729 0 473 b 0 182 228 -15 569 -15 b 672 -15 769 3 849 35 b 904 -47 1009 -99 1150 -99 b 1547 -99 1638 311 1739 664 b 1927 635 1906 447 1906 357 b 1906 179 1988 74 2127 74 b 2226 74 2311 128 2369 226 z m 672 422 b 1058 422 1057 987 533 988 b 620 1090 760 1145 931 1145 b 987 1145 1038 1139 1085 1127 b 846 961 945 620 1233 620 b 1386 620 1497 717 1567 906 b 1585 953 1626 1075 1535 1075 b 1507 1075 1480 1057 1480 1026 b 1526 983 1533 919 1506 865 b 1454 738 1359 660 1257 660 b 997 660 981 1170 1524 1170 b 1653 1170 1626 1141 1839 1138 b 1450 897 1545 -30 1095 -30 b 1009 -30 941 4 899 58 b 1005 112 1072 192 1072 281 b 1072 352 1030 397 964 397 b 854 397 807 287 807 184 b 807 142 815 102 829 70 b 762 44 685 29 605 29 b 328 29 146 209 146 476 b 146 665 238 832 376 898 b 274 660 422 422 672 422 z m 690 462 b 475 462 367 719 493 933 b 518 936 542 937 565 937 b 988 937 982 462 690 462 z m 961 362 b 1007 362 1032 334 1032 286 b 1032 210 970 140 877 92 b 862 121 852 164 852 207 b 852 284 883 362 961 362 z"},"R":{"x_min":0,"x_max":2071,"ha":2071,"o":"m 239 229 b 149 1 298 -240 580 -240 b 1127 -240 1446 670 1756 1041 b 1849 955 1900 849 1900 752 b 1900 581 1744 431 1455 431 b 1448 415 1456 393 1468 391 b 1727 269 1458 -206 1808 -206 b 1934 -206 2015 -145 2092 0 b 2100 20 2084 33 2057 28 b 2017 -36 1955 -78 1896 -78 b 1720 -78 1841 296 1583 397 b 1933 428 2090 580 2090 749 b 2090 879 1998 1017 1829 1117 b 1886 1168 1942 1197 2000 1196 b 2041 1195 2059 1180 2060 1149 b 2091 1149 2115 1166 2115 1188 b 2115 1217 2075 1240 2019 1243 b 1940 1247 1860 1210 1778 1145 b 1651 1209 1488 1252 1280 1258 b 1159 1262 1026 1253 900 1231 b 838 1385 730 1442 654 1442 b 590 1442 549 1402 577 1347 b 606 1362 636 1369 665 1369 b 746 1369 819 1313 856 1223 b 378 1128 22 858 22 538 b 22 387 102 277 239 229 z m 277 217 b 319 206 365 201 413 201 b 766 201 1114 473 1114 747 b 1114 866 1049 944 931 968 b 938 1045 932 1120 914 1187 b 1029 1212 1151 1224 1261 1220 b 1453 1214 1600 1160 1706 1082 b 1326 717 915 -140 503 -140 b 309 -140 214 50 277 217 z m 474 394 b 724 394 873 658 917 873 b 997 846 1043 786 1043 701 b 1043 483 741 256 451 256 b 260 256 149 354 149 525 b 149 814 469 1076 872 1177 b 889 1115 895 1046 890 974 b 875 975 859 976 840 976 b 572 976 311 773 311 561 b 311 459 371 398 474 394 z m 878 883 b 836 655 695 437 489 430 b 409 433 363 479 363 556 b 363 724 583 889 809 889 b 834 889 857 887 878 883 z"},"T":{"x_min":0,"x_max":1906,"ha":1906,"o":"m 733 -62 b 794 -123 892 -160 1029 -160 b 1726 -160 1699 803 2013 1045 b 2095 1001 2185 977 2270 977 b 2413 977 2525 1046 2580 1171 b 2588 1192 2581 1206 2567 1206 b 2562 1206 2555 1204 2548 1199 b 2488 1143 2404 1116 2295 1116 b 2005 1116 1665 1306 1364 1306 b 1253 1306 1166 1280 1101 1240 b 1040 1264 973 1276 888 1276 b 574 1276 382 1112 317 927 b -159 698 -113 -95 541 -95 b 622 -95 682 -83 733 -62 z m 1488 1116 b 1529 1091 1548 1048 1548 1000 b 1548 880 1434 728 1256 728 b 1160 728 1076 789 1076 934 b 1076 1083 1185 1260 1440 1260 b 1643 1260 1789 1147 1967 1071 b 1583 841 1471 -60 948 -60 b 888 -60 838 -48 800 -27 b 894 35 940 128 940 201 b 940 266 903 316 833 316 b 763 316 693 267 671 166 b 655 96 668 27 705 -28 b 663 -44 615 -54 558 -54 b 115 -54 38 545 294 817 b 277 615 408 422 658 422 b 1086 422 1085 988 596 988 b 542 988 487 981 435 968 b 504 1114 657 1235 900 1235 b 958 1235 1011 1228 1062 1212 b 984 1146 948 1055 948 967 b 948 775 1076 691 1220 691 b 1492 691 1617 913 1617 1053 b 1617 1113 1594 1158 1549 1163 b 1521 1166 1488 1139 1488 1116 z m 410 904 b 466 932 530 948 607 948 b 1031 948 1033 462 685 462 b 445 462 348 694 410 904 z m 762 1 b 718 43 701 103 713 164 b 728 240 782 281 833 281 b 878 281 900 250 900 208 b 900 145 852 57 762 1 z"},"P":{"x_min":0,"x_max":2111,"ha":2111,"o":"m 239 229 b 149 1 298 -240 580 -240 b 1141 -240 1462 716 1780 1068 b 1892 984 1954 870 1954 739 b 1954 482 1716 296 1388 296 b 1381 279 1390 256 1500 257 b 1829 261 2140 469 2140 747 b 2140 909 2034 1045 1851 1136 b 1900 1175 1950 1197 2001 1196 b 2041 1195 2059 1180 2060 1149 b 2091 1149 2115 1166 2115 1188 b 2115 1217 2075 1240 2019 1243 b 1947 1247 1873 1216 1798 1161 b 1663 1217 1493 1251 1295 1258 b 1159 1262 1026 1253 900 1231 b 861 1328 764 1432 652 1432 b 591 1432 554 1392 577 1346 b 602 1362 633 1370 665 1370 b 760 1370 822 1305 856 1223 b 378 1128 22 858 22 538 b 22 387 102 277 239 229 z m 277 217 b 319 206 365 201 413 201 b 766 201 1114 473 1114 747 b 1114 866 1049 944 931 968 b 938 1045 932 1120 914 1187 b 1029 1212 1151 1224 1273 1220 b 1458 1214 1613 1172 1728 1103 b 1342 751 923 -140 503 -140 b 309 -140 214 50 277 217 z m 474 394 b 724 394 873 658 917 873 b 997 846 1043 786 1043 701 b 1043 483 741 256 451 256 b 260 256 149 354 149 525 b 149 814 469 1076 872 1177 b 889 1115 895 1046 890 974 b 875 975 859 976 840 976 b 572 976 311 773 311 561 b 311 459 371 398 474 394 z m 878 883 b 836 655 695 437 489 430 b 409 433 363 479 363 556 b 363 724 583 889 809 889 b 834 889 857 887 878 883 z"},"|":{"x_min":0,"x_max":304,"ha":304,"o":"m 226 976 b 226 1058 181 1099 82 1099 l 91 89 b 92 8 143 -5 184 0 z"},"t":{"x_min":0,"x_max":370,"ha":370,"o":"m 127 65 b 235 65 320 118 380 226 l 337 236 b 299 163 231 115 173 115 b 124 115 103 150 117 222 b 125 262 147 329 170 390 l 254 390 b 275 390 293 429 290 444 l 191 444 b 205 481 219 514 227 538 b 223 581 166 615 97 616 l 37 444 l 11 444 b -10 444 -28 405 -25 390 l 18 390 l -39 225 b -68 115 22 65 127 65 z"},"M":{"x_min":0,"x_max":2857,"ha":2857,"o":"m 2755 883 b 2578 649 2435 343 2435 198 b 2435 100 2489 51 2597 51 b 2716 51 2808 109 2875 226 l 2832 236 b 2795 172 2743 133 2695 133 b 2655 133 2636 160 2636 216 b 2636 378 2785 715 2942 911 b 3005 990 3059 1029 3102 1029 b 3127 1029 3148 1016 3166 991 b 3190 1007 3206 1030 3206 1048 b 3206 1067 3189 1075 3152 1075 b 2889 1075 2529 817 2209 401 b 2289 659 2254 923 2281 1098 b 2352 1031 2382 974 2382 906 b 2382 876 2376 845 2366 825 b 2381 813 2397 808 2413 808 b 2454 808 2490 844 2490 892 b 2490 982 2352 1092 2290 1145 b 2305 1204 2331 1245 2369 1269 b 2370 1290 2364 1297 2349 1291 b 2306 1271 2264 1240 2222 1199 b 2002 1357 1722 1434 1453 1434 b 1123 1434 810 1319 644 1097 b 264 1086 0 838 0 492 b 0 126 266 -127 651 -127 b 721 -127 790 -119 853 -103 b 917 -203 1032 -260 1171 -260 b 1706 -260 1844 575 2124 1024 b 1993 682 2156 405 1954 61 b 1953 40 1962 32 1982 33 b 2035 83 2079 138 2118 200 b 2375 547 2562 747 2755 883 z m 834 -68 b 787 -78 738 -84 687 -84 b 369 -84 149 152 149 478 b 149 779 337 1008 611 1043 b 477 800 623 532 889 532 b 1059 532 1154 642 1154 772 b 1154 955 966 1073 741 1094 b 904 1296 1181 1394 1470 1394 b 1726 1394 1991 1317 2193 1170 b 1842 796 1552 -150 1083 -150 b 1010 -150 953 -127 914 -86 b 1123 -19 1275 124 1275 281 b 1275 387 1206 455 1096 455 b 913 455 802 266 802 87 b 802 33 812 -21 834 -68 z m 908 572 b 689 572 583 836 713 1048 b 1200 1040 1199 572 908 572 z m 1099 418 b 1184 418 1235 367 1235 284 b 1235 142 1083 5 888 -54 b 859 -10 846 45 846 100 b 846 254 946 418 1099 418 z"},"g":{"x_min":0,"x_max":520,"ha":520,"o":"m 51 -196 b 152 -196 253 -119 321 12 b 359 11 394 4 418 -8 b 437 -9 450 19 436 33 b 410 45 378 53 342 55 b 395 170 421 285 460 381 b 456 422 390 459 318 460 l 309 434 b 285 446 254 453 217 453 b 76 453 -39 352 -39 229 b -39 144 17 88 102 88 b 146 88 189 103 221 129 b 212 94 207 78 200 56 b 56 46 -59 -27 -59 -111 b -59 -162 -16 -196 51 -196 z m 297 398 b 279 345 257 285 240 228 b 220 183 181 151 147 151 b 119 151 103 172 103 210 b 103 301 192 401 274 401 b 282 401 290 400 297 398 z m 183 8 b 150 -76 74 -146 21 -146 b 10 -146 7 -143 7 -135 b 7 -87 113 1 183 8 z"},"j":{"x_min":0,"x_max":242,"ha":242,"o":"m 159 635 b 130 635 110 615 103 587 b 93 546 119 514 151 514 b 185 514 210 547 210 581 b 210 611 191 635 159 635 z m 28 455 b -17 324 -49 188 -91 56 b -235 46 -350 -27 -350 -111 b -350 -162 -307 -196 -240 -196 b -139 -196 -38 -119 30 12 b 52 11 74 10 90 5 b 137 -9 153 35 98 49 b 88 51 70 54 51 55 b 104 170 138 281 168 377 b 164 418 100 454 28 455 z m -108 8 b -127 -40 -205 -147 -259 -147 b -274 -147 -278 -139 -278 -127 b -278 -85 -229 8 -108 8 z"},"i":{"x_min":0,"x_max":305,"ha":305,"o":"m 166 635 b 137 635 117 615 110 587 b 100 546 126 514 158 514 b 192 514 217 547 217 581 b 217 611 198 635 166 635 z m 151 133 b 84 133 143 297 184 377 b 180 418 116 454 44 455 b 5 342 -39 253 -39 186 b -39 120 4 74 85 74 b 174 74 258 130 315 226 l 272 236 b 237 176 186 133 151 133 z"},"y":{"x_min":0,"x_max":568,"ha":568,"o":"m 353 455 b 339 415 327 375 315 335 b 279 257 186 133 139 133 b 84 133 143 297 184 377 b 180 418 116 454 44 455 b 5 342 -39 253 -39 186 b -39 120 4 74 84 74 b 161 74 220 116 268 171 b 257 132 246 94 234 56 b 90 46 -25 -27 -25 -111 b -25 -162 18 -196 85 -196 b 186 -196 287 -119 355 12 b 377 11 399 10 415 5 b 462 -9 478 35 423 49 b 413 51 395 54 376 55 b 429 170 463 281 493 377 b 489 418 425 454 353 455 z m 217 8 b 188 -66 103 -147 54 -147 b 37 -147 28 -138 28 -120 b 28 -61 131 8 217 8 z"},"@":{"x_min":0,"x_max":985,"ha":985,"o":"m 760 401 b 756 431 701 457 639 458 l 633 442 b 611 448 589 451 567 451 b 448 451 331 366 331 263 b 331 198 378 157 451 157 b 502 157 550 177 579 210 b 579 157 617 124 677 124 b 806 124 923 275 923 442 b 923 610 805 710 608 710 b 306 710 40 476 40 216 b 40 35 168 -74 371 -74 b 505 -74 618 -26 618 30 b 618 62 581 85 530 85 b 511 6 447 -45 363 -45 b 255 -45 186 39 186 181 b 186 434 403 661 652 661 b 793 661 874 589 874 465 b 874 337 788 190 714 190 b 638 190 725 346 760 401 z m 568 260 b 551 227 518 203 488 203 b 465 203 451 218 451 244 b 451 313 553 414 624 414 z"},".":{"x_min":0,"x_max":295,"ha":295,"o":"m 152 237 b 116 237 91 212 83 178 b 70 127 102 88 142 88 b 184 88 215 129 215 170 b 215 207 191 237 152 237 z"},"p":{"x_min":0,"x_max":564,"ha":564,"o":"m -140 -22 b -140 -109 -97 -171 -16 -171 b -6 -142 9 -100 26 -52 l 92 135 b 111 105 157 88 214 88 b 359 88 484 199 484 324 b 484 408 427 463 340 463 b 274 463 219 431 176 388 b 163 432 101 454 50 455 z m 125 228 b 157 293 229 400 296 400 b 326 400 342 379 342 341 b 342 251 254 150 174 150 b 143 150 121 165 110 184 z"},"X":{"x_min":0,"x_max":2094,"ha":2094,"o":"m 2298 1152 b 2063 1108 1896 868 1754 610 b 1700 875 1578 1152 1135 1152 b 547 1152 0 664 0 143 b 0 -165 191 -347 512 -347 b 732 -347 941 -261 1091 -129 b 1099 -150 1121 -168 1167 -168 b 1182 -168 1198 -166 1218 -162 b 1397 -124 1529 49 1646 255 b 1677 135 1730 51 1851 51 b 1955 51 2046 112 2111 226 l 2068 236 b 2030 171 1978 133 1925 133 b 1816 133 1805 298 1774 496 b 1910 761 2042 1017 2231 1074 b 2257 1082 2280 1085 2300 1085 b 2361 1085 2397 1058 2413 1058 b 2445 1058 2471 1158 2353 1158 b 2337 1158 2319 1156 2298 1152 z m 1321 330 b 1321 532 1198 653 992 654 b 980 872 896 935 835 935 b 796 935 766 911 766 885 b 913 872 944 760 958 653 b 680 637 409 414 409 191 b 409 94 461 43 559 43 b 771 43 974 283 991 554 b 1142 554 1229 463 1229 307 b 1229 1 894 -300 554 -300 b 299 -300 146 -131 146 154 b 146 646 603 1106 1098 1106 b 1577 1106 1576 675 1625 364 b 1513 150 1408 -36 1283 -84 b 1262 -92 1242 -95 1225 -95 b 1192 -95 1166 -84 1146 -76 b 1255 40 1321 182 1321 330 z m 461 179 b 461 355 729 560 958 560 b 943 314 753 80 568 80 b 498 80 461 114 461 179 z"},"*":{"x_min":0,"x_max":365,"ha":365,"o":"m 125 644 b 114 653 103 658 92 658 b 76 658 62 648 52 630 l 131 566 l 78 547 b 43 535 32 513 48 486 l 138 515 l 117 457 b 106 428 129 401 170 395 l 203 508 l 249 471 b 262 461 274 455 285 455 b 298 455 309 463 317 478 l 238 546 l 290 563 b 324 574 334 602 316 631 l 230 601 l 253 679 b 247 694 233 703 220 703 b 214 703 209 701 204 697 l 171 605 z"},"Y":{"x_min":0,"x_max":2112,"ha":2112,"o":"m 1863 504 b 1741 370 1598 281 1497 281 b 1438 281 1396 311 1396 366 b 1396 499 1644 837 1897 1040 l 1838 1046 b 1706 1064 1575 1073 1449 1073 b 1251 1073 1063 1051 893 1007 b 847 1137 729 1383 565 1383 b 521 1383 479 1357 479 1294 b 504 1304 528 1309 552 1309 b 702 1309 815 1121 860 998 b 302 842 0 471 0 194 b 0 -7 160 -159 442 -159 b 792 -159 1147 74 1250 340 b 1282 272 1352 233 1447 233 b 1561 233 1674 289 1836 423 b 1696 108 1577 -276 1284 -276 b 1155 -276 1074 -201 1092 -98 b 1106 -16 1174 36 1271 38 b 1326 37 1360 3 1363 -54 b 1372 -58 1380 -60 1389 -60 b 1419 -60 1443 -34 1443 -6 b 1443 41 1365 88 1284 82 b 1159 84 1070 12 1050 -109 b 1022 -276 1151 -394 1362 -394 b 1800 -394 1841 116 2001 534 l 2353 993 b 2342 1012 2323 1021 2288 1021 b 2067 1021 1936 670 1863 504 z m 943 765 b 939 830 928 893 910 955 b 1079 1009 1273 1037 1477 1037 b 1583 1037 1692 1030 1801 1014 b 1635 876 1371 740 1272 566 b 1241 694 1125 765 943 765 z m 943 671 b 1100 671 1187 598 1187 465 b 1187 194 827 -104 488 -104 b 267 -104 156 23 156 192 b 156 442 397 784 878 944 b 895 882 906 822 910 766 b 645 764 361 526 361 305 b 361 211 413 160 511 160 b 723 160 926 400 943 671 z m 413 296 b 413 472 681 677 910 677 b 895 431 705 197 520 197 b 450 197 413 231 413 296 z"},"c":{"x_min":0,"x_max":451,"ha":451,"o":"m 461 226 l 418 236 b 383 177 311 136 241 136 b 166 136 114 184 114 254 b 114 327 171 405 222 405 b 273 405 243 326 212 297 b 208 272 231 253 263 253 b 311 253 349 294 349 345 b 349 410 289 453 198 453 b 67 453 -39 363 -39 251 b -39 148 52 75 179 75 b 295 75 406 135 461 226 z"},"!":{"x_min":0,"x_max":431,"ha":431,"o":"m 413 738 b 440 816 388 861 289 861 b 246 738 185 521 156 384 b 141 314 156 276 197 281 z m 136 240 b 100 240 75 215 67 181 b 54 130 86 91 126 91 b 168 91 199 132 199 173 b 199 210 175 240 136 240 z"},"/":{"x_min":0,"x_max":372,"ha":372,"o":"m 486 976 b 513 1054 471 1099 372 1099 b 329 976 68 240 38 99 b 24 33 39 -5 80 0 z"},"[":{"x_min":0,"x_max":493,"ha":493,"o":"m 390 74 b 279 56 234 54 151 43 l 512 982 l 578 979 b 628 978 652 1012 643 1054 b 518 1034 478 1034 372 1019 b 329 896 106 249 80 126 b 65 54 87 18 118 10 l 118 9 l 325 -1 b 375 -2 399 32 390 74 z"},"6":{"x_min":0,"x_max":581,"ha":581,"o":"m 516 634 b 504 675 444 701 369 701 b 177 701 19 528 19 326 b 19 171 112 85 263 85 b 417 85 541 175 541 304 b 541 399 474 460 369 460 b 281 460 207 417 156 334 b 184 542 243 659 329 670 b 382 676 405 637 387 562 b 401 556 415 553 430 553 b 482 553 529 591 516 634 z m 406 317 b 406 216 336 129 270 129 b 223 129 196 174 196 238 b 196 339 264 416 333 416 b 381 416 406 378 406 317 z"},"r":{"x_min":0,"x_max":444,"ha":444,"o":"m 151 564 b 133 573 116 577 101 577 b 34 577 -2 507 77 473 b 46 394 -14 263 -45 216 l -11 194 b 28 244 86 379 116 459 l 193 432 l 105 202 b 80 115 162 64 235 64 b 319 64 398 132 454 226 l 411 236 b 376 175 306 109 263 109 b 189 109 304 305 345 381 b 338 448 181 478 129 496 z"},"2":{"x_min":0,"x_max":530,"ha":530,"o":"m 481 556 b 481 662 386 704 285 704 b 174 704 56 653 56 579 b 56 532 103 492 145 490 b 157 590 227 669 301 669 b 338 669 359 650 359 611 b 359 508 208 303 0 152 b -14 134 1 113 23 120 b 35 123 50 124 66 124 b 159 124 309 87 371 87 b 507 87 483 262 404 262 b 363 172 212 163 101 152 b 336 259 481 425 481 556 z"},"{":{"x_min":0,"x_max":457,"ha":457,"o":"m 274 562 b 663 696 456 1193 702 1193 b 782 1193 772 1245 742 1241 b 68 1241 644 619 237 619 b 97 619 103 545 159 548 b 439 553 50 280 50 84 b 50 4 114 -34 190 -34 b 235 -34 284 -20 326 6 b 345 16 347 46 322 48 b 236 61 225 111 225 147 b 225 315 467 490 274 562 z"},"9":{"x_min":0,"x_max":547,"ha":547,"o":"m 44 152 b 56 112 115 85 191 85 b 381 85 541 256 541 459 b 541 612 451 701 297 701 b 138 701 19 607 19 481 b 19 387 86 326 197 326 b 280 326 353 360 404 442 b 376 232 316 127 233 116 b 177 109 155 150 173 224 b 159 230 145 233 130 233 b 78 233 31 195 44 152 z m 154 472 b 154 574 215 664 294 664 b 354 664 394 611 394 550 b 394 460 309 370 230 370 b 180 370 154 406 154 472 z"}," ":{"x_min":0,"x_max":250,"ha":250,"o":""},"I":{"x_min":0,"x_max":1881,"ha":1881,"o":"m 2132 1202 b 2133 1225 2123 1237 2103 1235 b 2024 1193 1958 1176 1867 1176 b 1728 1176 1575 1216 1417 1216 b 1294 1216 1199 1192 1128 1155 b 1068 1176 999 1186 916 1186 b 669 1186 508 1097 421 980 b 143 935 0 711 0 484 b 0 218 196 -55 596 -55 b 690 -55 775 -40 845 -13 b 907 -80 1013 -120 1150 -120 b 1777 -120 1683 722 2062 1142 b 2087 1170 2106 1187 2132 1202 z m 819 20 b 762 -1 698 -14 627 -14 b 311 -14 147 247 147 496 b 147 663 221 825 373 898 b 280 682 396 422 662 422 b 1055 422 1054 987 530 988 b 608 1079 739 1145 929 1145 b 986 1145 1036 1139 1082 1127 b 844 957 958 600 1240 600 b 1510 600 1620 819 1620 960 b 1620 1026 1595 1075 1551 1075 b 1521 1075 1493 1058 1493 1023 b 1528 1007 1546 963 1546 910 b 1546 796 1459 640 1266 640 b 1014 640 968 1170 1513 1170 b 1640 1170 1723 1141 1936 1138 b 1632 908 1590 -20 1069 -20 b 1005 -20 952 -6 912 18 b 1004 70 1059 147 1059 234 b 1059 310 1018 356 950 356 b 874 356 810 298 789 203 b 775 138 785 73 819 20 z m 490 933 b 513 936 537 938 564 938 b 980 938 982 462 684 462 b 459 462 371 732 490 933 z m 876 46 b 836 87 820 144 833 212 b 846 274 895 321 950 321 b 994 321 1019 292 1019 242 b 1019 166 963 94 876 46 z"},"H":{"x_min":0,"x_max":2107,"ha":2107,"o":"m 1009 1204 b 1009 1278 1070 1339 1146 1339 b 1212 1339 1267 1294 1267 1239 b 1267 1208 1249 1183 1225 1183 b 1195 1183 1175 1200 1162 1242 b 1135 1242 1114 1219 1114 1191 b 1114 1155 1149 1128 1195 1128 b 1257 1124 1307 1174 1307 1238 b 1307 1315 1234 1379 1145 1379 b 1044 1379 969 1296 969 1182 b 969 1047 1073 973 1262 973 b 1352 973 1466 990 1606 1023 b 1469 941 1378 777 1294 597 b 1242 627 1188 658 1128 685 b 1114 951 900 1128 596 1128 b 249 1128 0 897 0 577 b 0 378 97 223 245 168 b 241 148 239 127 239 106 b 239 -93 424 -229 698 -229 b 1136 -229 1286 119 1407 453 b 1500 409 1586 376 1672 376 b 1691 376 1709 378 1728 381 b 1715 328 1707 278 1707 230 b 1707 110 1757 51 1863 51 b 1969 51 2060 111 2126 226 l 2083 236 b 2046 172 1994 133 1946 133 b 1905 133 1887 161 1887 225 b 1887 487 2188 1083 2321 1083 b 2350 1083 2369 1055 2373 1006 b 2419 1018 2441 1035 2441 1060 b 2441 1097 2395 1127 2339 1127 b 2141 1127 1838 746 1739 422 b 1635 407 1538 453 1430 516 b 1523 774 1607 1008 1810 1049 b 1856 1062 1840 1115 1776 1109 b 1725 1105 1524 1053 1321 1053 b 1117 1053 1009 1105 1009 1204 z m 290 155 b 315 149 342 146 370 146 b 469 146 536 184 546 246 b 556 308 504 356 433 356 b 357 356 294 301 262 223 b 173 283 115 411 115 570 b 115 869 321 1080 615 1080 b 866 1080 1057 926 1085 703 b 1013 732 936 750 854 750 b 652 750 527 642 527 486 b 527 344 631 253 779 253 b 961 253 1099 392 1125 588 b 1173 568 1218 546 1261 525 b 1114 198 976 -153 630 -153 b 431 -153 285 -37 288 126 b 288 136 289 146 290 155 z m 862 645 b 941 645 1016 628 1087 602 b 1070 424 949 293 791 293 b 680 293 603 357 603 458 b 603 571 698 645 862 645 z m 301 202 b 324 269 373 316 433 316 b 478 316 512 290 506 254 b 499 214 449 186 383 186 b 355 186 327 191 301 202 z"},"4":{"x_min":0,"x_max":562,"ha":562,"o":"m 284 593 b 298 657 249 702 141 693 b 126 538 75 402 40 323 b 49 270 87 269 119 269 l 318 269 l 300 216 b 273 139 325 83 424 83 l 454 269 b 513 268 535 278 526 323 l 462 323 l 512 637 b 517 679 501 694 463 695 l 336 323 l 102 323 z"},"~":{"x_min":0,"x_max":545,"ha":545,"o":"m 345 378 b 292 378 217 394 165 394 b 93 394 42 364 41 322 b 41 316 46 314 54 317 b 74 330 96 336 119 336 b 188 336 279 283 353 283 b 435 283 487 348 465 418 b 431 391 393 378 345 378 z"},"D":{"x_min":0,"x_max":2214,"ha":2214,"o":"m 172 260 b 60 29 207 -160 475 -160 b 1059 -160 1466 737 1813 1072 b 1921 988 1979 870 1979 720 b 1979 402 1716 71 1464 71 b 1382 71 1340 106 1340 161 b 1340 210 1373 244 1436 265 b 1423 297 1392 315 1362 315 b 1298 315 1277 240 1277 187 b 1277 77 1362 9 1513 9 b 1841 9 2146 328 2146 673 b 2146 869 2048 1023 1871 1123 b 1932 1171 1991 1198 2050 1196 b 2093 1194 2109 1178 2110 1149 b 2141 1149 2165 1166 2165 1188 b 2165 1217 2126 1240 2069 1243 b 1990 1248 1905 1213 1816 1151 b 1679 1215 1503 1252 1295 1258 b 1158 1262 1025 1252 900 1230 b 861 1326 784 1445 650 1445 b 606 1445 553 1405 577 1356 b 608 1370 640 1378 671 1378 b 764 1378 823 1301 856 1222 b 374 1126 22 855 22 537 b 22 413 76 317 172 260 z m 207 241 b 265 215 335 201 415 201 b 766 201 1114 473 1114 747 b 1114 866 1049 944 931 968 b 937 1043 932 1116 915 1182 b 1041 1210 1176 1224 1317 1219 b 1498 1212 1649 1175 1760 1109 b 1342 776 843 -60 399 -60 b 213 -60 134 87 207 241 z m 474 394 b 724 394 873 658 917 873 b 997 846 1043 786 1043 701 b 1043 483 741 256 451 256 b 260 256 149 354 149 524 b 149 809 460 1069 873 1172 b 889 1111 895 1044 890 974 b 875 975 859 976 840 976 b 572 976 311 773 311 561 b 311 459 371 398 474 394 z m 878 883 b 836 655 695 437 489 430 b 409 433 363 479 363 556 b 363 724 583 889 809 889 b 834 889 857 887 878 883 z"},"^":{"x_min":0,"x_max":274,"ha":274,"o":"m 11 583 b 6 552 29 531 53 531 b 62 531 71 534 79 540 l 167 633 b 183 593 179 526 221 526 b 245 526 270 551 262 571 l 202 650 b 196 658 191 662 185 662 b 180 662 175 660 169 658 z"},"0":{"x_min":0,"x_max":574,"ha":574,"o":"m 308 699 b 129 699 15 504 15 337 b 15 200 92 75 261 75 b 454 75 544 239 544 398 b 544 546 466 699 308 699 z m 309 660 b 373 660 400 565 400 462 b 400 310 341 119 249 119 b 187 119 160 207 160 311 b 160 463 217 660 309 660 z"},"F":{"x_min":0,"x_max":2179,"ha":2179,"o":"m 733 -62 b 794 -123 892 -160 1028 -160 b 1447 -160 1606 193 1735 525 b 1807 488 1880 452 1953 452 b 2044 452 2134 507 2220 680 b 2228 701 2206 702 2184 698 b 2138 606 2071 577 1994 577 b 1926 577 1849 599 1771 621 b 1840 801 1907 964 2013 1045 b 2095 1001 2185 977 2270 977 b 2413 977 2525 1046 2580 1171 b 2588 1192 2581 1206 2567 1206 b 2562 1206 2555 1204 2548 1199 b 2488 1143 2404 1116 2295 1116 b 2005 1116 1665 1306 1364 1306 b 1253 1306 1166 1280 1101 1240 b 1040 1264 973 1276 888 1276 b 574 1276 382 1112 317 927 b -159 698 -113 -95 541 -95 b 622 -95 682 -83 733 -62 z m 1236 730 b 995 730 999 1260 1440 1260 b 1643 1260 1789 1147 1967 1071 b 1833 991 1733 829 1636 653 b 1605 659 1574 662 1544 662 b 1489 662 1437 650 1389 618 b 1376 600 1393 587 1411 584 b 1440 604 1471 613 1502 613 b 1535 613 1568 604 1602 590 b 1434 276 1268 -60 948 -60 b 888 -60 838 -48 800 -27 b 894 35 940 128 940 201 b 940 266 903 316 833 316 b 763 316 693 267 671 166 b 655 96 668 27 705 -28 b 663 -44 615 -54 558 -54 b 115 -54 38 545 294 817 b 277 615 408 422 658 422 b 1086 422 1085 988 596 988 b 542 988 487 981 435 968 b 504 1114 657 1235 900 1235 b 958 1235 1011 1228 1062 1212 b 856 1039 942 690 1209 690 b 1441 690 1598 927 1598 1100 b 1598 1132 1575 1154 1546 1154 b 1522 1154 1491 1135 1491 1111 b 1518 1087 1530 1055 1530 1019 b 1530 895 1387 730 1236 730 z m 410 904 b 466 932 530 948 607 948 b 1031 948 1033 462 685 462 b 445 462 348 694 410 904 z m 762 1 b 718 43 701 103 713 164 b 728 240 782 281 833 281 b 878 281 900 250 900 208 b 900 145 852 57 762 1 z"},"`":{"x_min":0,"x_max":247,"ha":247,"o":"m 208 511 b 230 502 240 530 236 550 l 87 655 b 75 661 64 664 55 664 b 12 664 0 610 19 601 z"},"k":{"x_min":0,"x_max":547,"ha":547,"o":"m -50 207 b -50 120 -7 74 74 74 b 85 103 99 145 116 193 l 127 225 l 152 232 b 173 114 239 57 315 57 b 402 57 502 132 557 226 l 514 236 b 482 178 429 149 380 149 b 324 149 272 187 262 264 b 363 297 434 333 461 394 b 462 425 410 465 360 465 b 350 465 340 463 330 459 b 314 391 249 326 148 282 l 226 503 b 243 551 258 593 268 622 b 263 673 195 699 140 700 z"},"u":{"x_min":0,"x_max":579,"ha":579,"o":"m 480 381 b 475 432 393 459 338 460 l 278 281 b 247 211 181 133 141 133 b 84 133 143 297 184 377 b 180 418 116 454 44 455 b 5 342 -39 253 -39 186 b -39 120 4 74 88 74 b 170 74 226 118 268 174 b 287 121 335 88 399 88 b 473 88 533 132 589 226 l 546 236 b 511 175 460 133 421 133 b 343 133 443 301 480 381 z"},"]":{"x_min":0,"x_max":496,"ha":496,"o":"m 269 1076 b 260 1034 284 1000 334 1001 l 499 1009 l 138 56 b 101 60 61 66 2 75 b -7 33 17 -1 67 0 l 274 10 b 317 133 545 803 571 924 b 589 1010 554 1050 513 1045 b 426 1056 383 1058 269 1076 z"},"U":{"x_min":0,"x_max":2235,"ha":2235,"o":"m 494 1222 b 525 1241 557 1250 589 1250 b 701 1250 810 1135 860 998 b 302 842 0 471 0 194 b 0 -7 160 -159 443 -159 b 774 -159 1110 50 1232 299 b 1233 144 1321 51 1468 51 b 1592 51 1721 118 1840 245 b 1823 122 1879 51 1994 51 b 2100 51 2190 112 2256 226 l 2213 236 b 2176 172 2124 133 2076 133 b 2036 133 2017 159 2017 211 b 2017 384 2229 782 2446 1017 b 2446 1022 2446 1029 2437 1028 b 2385 1002 2363 998 2310 1004 b 2137 881 1954 609 1863 339 b 1771 208 1624 113 1511 113 b 1439 113 1396 151 1396 213 b 1396 363 1649 778 1897 1038 l 1838 1046 b 1706 1064 1575 1073 1449 1073 b 1251 1073 1063 1051 893 1007 b 825 1195 696 1303 558 1303 b 453 1303 447 1240 494 1222 z m 943 765 b 939 830 928 893 910 955 b 1079 1009 1273 1038 1477 1038 b 1585 1038 1697 1030 1809 1013 b 1648 839 1387 702 1280 496 b 1278 668 1157 765 943 765 z m 943 671 b 1100 671 1187 598 1187 465 b 1187 194 827 -104 488 -104 b 267 -104 156 23 156 192 b 156 442 397 784 878 944 b 895 882 906 822 910 766 b 645 764 361 526 361 305 b 361 211 413 160 511 160 b 723 160 926 400 943 671 z m 413 296 b 413 472 681 677 910 677 b 895 431 705 197 520 197 b 450 197 413 231 413 296 z"},"o":{"x_min":0,"x_max":505,"ha":505,"o":"m 425 318 b 425 411 345 453 256 453 b 111 453 -39 342 -39 222 b -39 133 43 78 137 78 b 270 78 425 189 425 318 z m 143 110 b 48 110 160 421 248 421 b 336 421 238 110 143 110 z"},"N":{"x_min":0,"x_max":2638,"ha":2638,"o":"m 2560 1107 b 2560 1350 2183 1562 1697 1562 b 1246 1562 840 1380 644 1097 b 263 1086 0 835 0 481 b 0 124 268 -127 648 -127 b 716 -127 785 -119 853 -103 b 915 -203 1031 -260 1171 -260 b 1737 -260 1818 676 2120 1099 b 2016 754 2408 340 2247 1 b 2246 -20 2255 -28 2275 -27 b 2312 15 2342 60 2363 108 b 2545 472 2806 1271 3097 1271 b 3133 1271 3155 1259 3176 1231 b 3210 1231 3236 1252 3236 1278 b 3236 1308 3202 1325 3141 1325 b 2797 1325 2617 792 2413 337 b 2425 731 2128 1160 2299 1269 b 2300 1290 2294 1297 2279 1291 b 1851 1087 1620 -150 1085 -150 b 1014 -150 956 -128 914 -86 b 1131 -16 1275 130 1275 281 b 1275 387 1205 455 1098 455 b 933 455 802 291 802 89 b 802 30 813 -23 834 -68 b 784 -79 735 -84 689 -84 b 372 -84 149 148 149 477 b 149 778 336 1008 611 1043 b 492 795 636 532 891 532 b 1046 532 1154 629 1154 768 b 1154 940 988 1071 741 1094 b 930 1353 1304 1520 1699 1520 b 2105 1520 2464 1343 2464 1150 b 2464 1100 2448 1070 2392 1028 b 2404 995 2433 978 2464 978 b 2510 978 2560 1018 2560 1107 z m 1107 764 b 1107 651 1026 572 912 572 b 706 572 599 827 713 1048 b 942 1044 1107 925 1107 764 z m 888 -54 b 859 -10 846 44 846 99 b 846 253 947 418 1099 418 b 1185 418 1235 366 1235 284 b 1235 142 1083 5 888 -54 z"},"+":{"x_min":0,"x_max":493,"ha":493,"o":"m 107 439 b 60 440 33 409 42 363 l 187 363 l 151 264 b 137 225 168 189 223 181 l 276 363 l 386 363 b 436 362 460 386 451 428 l 297 433 l 336 566 b 328 586 309 598 292 598 b 284 598 276 595 270 590 l 214 436 z"},"G":{"x_min":0,"x_max":1788,"ha":1788,"o":"m 1283 313 b 1226 313 1185 333 1158 367 b 1209 441 1238 528 1238 623 b 1238 687 1225 746 1199 799 b 1243 883 1304 963 1377 1023 b 1445 1009 1517 1003 1588 1008 b 1726 1011 1806 1059 1806 1104 b 1806 1144 1742 1182 1603 1182 b 1479 1182 1374 1152 1286 1103 b 1190 1140 1118 1192 1081 1255 b 1166 1278 1220 1310 1220 1371 b 1220 1430 1171 1467 1094 1467 b 1009 1467 957 1421 957 1347 b 957 1324 962 1301 971 1279 b 759 1251 429 1238 208 1060 b 75 953 0 802 0 641 b 0 339 264 114 618 114 b 812 114 981 182 1094 292 b 1133 273 1180 263 1234 263 b 1364 263 1484 320 1568 419 b 1478 12 1235 -276 961 -276 b 824 -276 740 -204 758 -99 b 773 -11 857 39 928 39 b 983 39 1029 9 1029 -54 b 1035 -57 1041 -58 1048 -58 b 1071 -58 1096 -45 1106 -23 b 1130 31 1041 82 943 82 b 846 82 738 33 716 -109 b 689 -276 816 -414 1010 -414 b 1324 -414 1625 -50 1676 406 b 1681 450 1683 489 1681 520 b 1719 571 1750 635 1769 702 b 1666 714 1597 674 1597 602 b 1594 574 1591 547 1587 520 b 1527 398 1399 313 1283 313 z m 1063 1294 b 1057 1313 1053 1333 1053 1354 b 1053 1406 1076 1435 1114 1435 b 1149 1435 1175 1410 1175 1376 b 1175 1333 1132 1309 1063 1294 z m 1062 311 b 962 214 814 154 649 154 b 351 154 135 349 135 616 b 135 755 193 890 295 989 b 484 1172 788 1197 995 1236 b 1041 1169 1126 1109 1229 1067 b 1175 1029 1127 984 1088 934 b 1011 994 909 1028 792 1028 b 519 1028 285 844 285 629 b 285 493 379 400 517 400 b 613 400 698 445 737 516 b 782 597 763 701 705 701 b 675 701 646 673 646 645 b 685 617 718 567 690 518 b 667 474 600 441 532 441 b 435 441 374 509 374 617 b 374 806 562 949 811 949 b 908 949 991 927 1055 887 b 918 678 909 417 1062 311 z m 1433 1064 b 1501 1107 1578 1133 1661 1133 b 1724 1133 1754 1118 1754 1101 b 1754 1079 1703 1053 1610 1049 b 1548 1049 1488 1054 1433 1064 z m 1136 404 b 1100 488 1117 619 1173 747 b 1188 709 1197 665 1197 617 b 1197 541 1175 468 1136 404 z"},"q":{"x_min":0,"x_max":587,"ha":587,"o":"m 189 -22 b 189 -109 232 -171 313 -171 b 324 -142 338 -100 355 -52 l 465 258 b 482 306 497 348 507 377 b 502 428 434 454 379 455 l 357 399 b 340 433 292 453 231 453 b 86 453 -39 342 -39 217 b -39 133 18 78 105 78 b 163 78 213 103 253 138 z m 337 355 b 327 315 235 141 149 141 b 119 141 103 162 103 200 b 103 290 191 391 272 391 b 303 391 327 376 337 355 z"},"d":{"x_min":0,"x_max":559,"ha":559,"o":"m 526 236 b 500 189 451 149 423 149 b 336 149 496 518 533 622 b 529 665 472 699 403 700 l 311 433 b 288 446 256 453 218 453 b 76 453 -39 352 -39 229 b -39 143 18 88 103 88 b 164 88 219 117 253 162 b 275 116 320 88 379 88 b 453 88 513 132 569 226 z m 298 397 b 284 356 256 282 240 228 b 220 184 181 151 147 151 b 119 151 103 172 103 210 b 103 300 191 401 271 401 b 282 401 290 399 298 397 z"},"1":{"x_min":0,"x_max":301,"ha":301,"o":"m 52 216 b 25 139 77 83 176 83 l 274 637 b 281 682 266 694 205 695 l 89 591 b 76 583 83 564 105 545 l 176 605 z"},"5":{"x_min":0,"x_max":523,"ha":523,"o":"m 432 701 b 384 675 302 667 231 667 b 191 667 155 670 130 673 l 73 426 b 188 426 338 425 338 278 b 338 187 280 134 224 134 b 173 134 124 179 124 289 b 111 295 99 297 87 297 b 46 297 16 266 15 220 b 14 135 114 89 222 89 b 348 89 484 151 484 285 b 484 407 371 484 229 484 b 201 484 171 481 138 476 l 159 601 l 374 564 b 473 554 491 681 432 701 z"}}}
